Genre:Crime 
Language:English
IMDb:http://www.imdb.com/title/tt1449379/
Source:BluRay-WiKi
Subtitles: ROMANA
Encoder: Tony2
..........................................
General
Complete name : Caught In The Crossfire 2010 480p BRRip.H264.FEEL-FREE
Format : MPEG-4
Format profile : Base Media
Codec ID : isom
File size : 1.04 GiB
Duration : 1h 24mn
Overall bit rate : 1 758 Kbps
.......................................... 
Video
ID : 1
Format : AVC
Format/Info : Advanced Video Codec
Format profile : Baseline@L5.1
Format settings, CABAC : No
Format settings, ReFrames : 1 frame
Codec ID : avc1
Codec ID/Info : Advanced Video Coding
Duration : 1h 24mn
Bit rate mode : Variable
Bit rate : 1 548 Kbps
Width : 720 pixels
Height : 304 pixels
Display aspect ratio : 2.35:1
Frame rate mode : Constant
Frame rate : 23.976 fps
Resolution : 24 bits
Colorimetry : 4:2:0
Scan type : Progressive
Bits/(Pixel*Frame) : 0.295
Stream size : 937 MiB (88%)
..........................................

Audio
ID : 2
Format : AAC
Format/Info : Advanced Audio Codec
Format version : Version 4
Format profile : LC
Format settings, SBR : No
Codec ID : 40
Duration : 1h 24mn
Bit rate mode : Variable
Bit rate : 206 Kbps
Channel(s) : 6 channels
Channel positions : Front: L C R, Rear: L R, LFE
Sampling rate : 48.0 KHz
Resolution : 16 bits
Stream size : 125 MiB (12%)
..........................................
Plot:
Two detectives investigating a gang-related find themselves targeted by both gang members and crooked cops
...................................................
Screenshots:
 
http://postimg.com/image/18000/17897.jpg
 
http://postimg.com/image/18000/17898.jpg
............................................................